<svg width="24" height="24" viewBox="0 0 24 24" fill="none" xmlns="http://www.w3.org/2000/svg">
<g clip-path="url(#clip0_4041_16009)">
<path d="M17.3006 6.29931C16.9106 5.90931 16.2806 5.90931 15.8906 6.29931L10.2506 11.9393L11.6606 13.3493L17.3006 7.69931C17.6806 7.31931 17.6806 6.67931 17.3006 6.29931ZM21.5406 6.28931L11.6606 16.1693L8.18063 12.6993C7.79063 12.3093 7.16062 12.3093 6.77063 12.6993C6.38063 13.0893 6.38063 13.7193 6.77063 14.1093L10.9506 18.2893C11.3406 18.6793 11.9706 18.6793 12.3606 18.2893L22.9506 7.70931C23.3406 7.31931 23.3406 6.68931 22.9506 6.29931H22.9406C22.5606 5.89931 21.9306 5.89931 21.5406 6.28931ZM1.12062 14.1193L5.30063 18.2993C5.69063 18.6893 6.32063 18.6893 6.71063 18.2993L7.41062 17.5993L2.53062 12.6993C2.14062 12.3093 1.51063 12.3093 1.12062 12.6993C0.730625 13.0893 0.730625 13.7293 1.12062 14.1193Z" fill="#00AB6F"/>
</g>
<defs>
<clipPath id="clip0_4041_16009">
<rect width="24" height="24" fill="white"/>
</clipPath>
</defs>
</svg>
