<svg width="40" height="40" viewBox="0 0 40 40" fill="none" xmlns="http://www.w3.org/2000/svg">
<circle cx="20" cy="20" r="20" fill="#00AB6F"/>
<path d="M28.2102 15.8199L20.5102 20.2799C20.2002 20.4599 19.8102 20.4599 19.4902 20.2799L11.7902 15.8199C11.2402 15.4999 11.1002 14.7499 11.5202 14.2799C11.8102 13.9499 12.1402 13.6799 12.4902 13.4899L17.9102 10.4899C19.0702 9.83994 20.9502 9.83994 22.1102 10.4899L27.5302 13.4899C27.8802 13.6799 28.2102 13.9599 28.5002 14.2799C28.9002 14.7499 28.7602 15.4999 28.2102 15.8199Z" fill="white"/>
<path d="M19.4305 22.1399V28.9599C19.4305 29.7199 18.6605 30.2199 17.9805 29.8899C15.9205 28.8799 12.4505 26.9899 12.4505 26.9899C11.2305 26.2999 10.2305 24.5599 10.2305 23.1299V17.9699C10.2305 17.1799 11.0605 16.6799 11.7405 17.0699L18.9305 21.2399C19.2305 21.4299 19.4305 21.7699 19.4305 22.1399Z" fill="white"/>
<path d="M20.5703 22.1399V28.9599C20.5703 29.7199 21.3403 30.2199 22.0203 29.8899C24.0803 28.8799 27.5503 26.9899 27.5503 26.9899C28.7703 26.2999 29.7703 24.5599 29.7703 23.1299V17.9699C29.7703 17.1799 28.9403 16.6799 28.2603 17.0699L21.0703 21.2399C20.7703 21.4299 20.5703 21.7699 20.5703 22.1399Z" fill="white"/>
</svg>
