<svg width="40" height="40" viewBox="0 0 40 40" fill="none" xmlns="http://www.w3.org/2000/svg">
<circle cx="20" cy="20" r="20" fill="#E6EBF1"/>
<g clip-path="url(#clip0_3143_17410)">
<path d="M27.41 15.41L22.58 10.58C22.21 10.21 21.7 10 21.17 10H14C12.9 10 12.01 10.9 12.01 12L12 28C12 29.1 12.89 30 13.99 30H26C27.1 30 28 29.1 28 28V16.83C28 16.3 27.79 15.79 27.41 15.41ZM18.23 25.29L16.11 23.17C15.72 22.78 15.72 22.15 16.11 21.76C16.5 21.37 17.13 21.37 17.52 21.76L18.93 23.17L22.47 19.63C22.86 19.24 23.49 19.24 23.88 19.63C24.27 20.02 24.27 20.65 23.88 21.04L19.64 25.28C19.26 25.68 18.62 25.68 18.23 25.29ZM22 17C21.45 17 21 16.55 21 16V11.5L26.5 17H22Z" fill="white"/>
</g>
<defs>
<clipPath id="clip0_3143_17410">
<rect width="24" height="24" fill="white" transform="translate(8 8)"/>
</clipPath>
</defs>
</svg>
