<svg width="20" height="20" viewBox="0 0 20 20" fill="none" xmlns="http://www.w3.org/2000/svg">
<g clip-path="url(#clip0_472_3005)">
<path d="M16.25 2.91699L15 1.66699L13.75 2.91699L12.5 1.66699L11.25 2.91699L10 1.66699L8.75 2.91699L7.5 1.66699L6.25 2.91699L5 1.66699V13.3337H2.5V15.8337C2.5 17.217 3.61667 18.3337 5 18.3337H15C16.3833 18.3337 17.5 17.217 17.5 15.8337V1.66699L16.25 2.91699ZM12.5 16.667H5C4.54167 16.667 4.16667 16.292 4.16667 15.8337V15.0003H12.5V16.667ZM15.8333 15.8337C15.8333 16.292 15.4583 16.667 15 16.667C14.5417 16.667 14.1667 16.292 14.1667 15.8337V13.3337H6.66667V4.16699H15.8333V15.8337Z" fill="#455560"/>
<path d="M12.5 5.83398H7.5V7.50065H12.5V5.83398Z" fill="#455560"/>
<path d="M14.9997 5.83398H13.333V7.50065H14.9997V5.83398Z" fill="#455560"/>
<path d="M12.5 8.33398H7.5V10.0007H12.5V8.33398Z" fill="#455560"/>
<path d="M14.9997 8.33398H13.333V10.0007H14.9997V8.33398Z" fill="#455560"/>
</g>
<defs>
<clipPath id="clip0_472_3005">
<rect width="20" height="20" fill="white"/>
</clipPath>
</defs>
</svg>
